<svg width="50" height="50" viewBox="0 0 50 50" fill="none" xmlns="http://www.w3.org/2000/svg">
<g clip-path="url(#clip0_0_982)">
<path d="M4.31818 38.0237C4.42766 38.1403 4.54739 38.2478 4.6712 38.3521C4.54636 38.2488 4.42869 38.1403 4.31818 38.0237Z" fill="#00AAE1"/>
<path d="M4.74792 38.4194C4.89732 38.5371 5.0549 38.6466 5.22272 38.7438C5.0549 38.6466 4.89732 38.5371 4.74792 38.4194Z" fill="#00AAE1"/>
<path d="M44.7839 38.7438C44.9517 38.6466 45.1093 38.5381 45.2587 38.4194C45.1093 38.5371 44.9517 38.6466 44.7839 38.7438Z" fill="#00AAE1"/>
<path d="M38.5584 19.4974C38.5584 19.3316 38.5461 19.1668 38.5256 19.0042C38.5461 19.1668 38.5584 19.3306 38.5584 19.4974Z" fill="#00AAE1"/>
<path d="M37.8339 17.2064C37.8339 17.2064 37.8277 17.1982 37.8257 17.1931C37.8288 17.1972 37.8318 17.2013 37.8339 17.2064Z" fill="#00AAE1"/>
<path d="M12.9851 16.3367C12.9585 16.3582 12.935 16.3827 12.9084 16.4042C12.935 16.3827 12.9585 16.3582 12.9851 16.3367Z" fill="#00AAE1"/>
<path d="M37.0982 16.4042C37.0716 16.3827 37.0481 16.3582 37.0215 16.3367C37.0481 16.3582 37.0716 16.3817 37.0982 16.4042Z" fill="#00AAE1"/>
<path d="M37.4931 16.7805C37.4788 16.7651 37.4665 16.7487 37.4512 16.7334C37.4655 16.7487 37.4788 16.7651 37.4931 16.7805Z" fill="#00AAE1"/>
<path d="M38.3159 18.1425C38.3128 18.1322 38.3098 18.123 38.3057 18.1128C38.3098 18.122 38.3118 18.1322 38.3159 18.1425Z" fill="#00AAE1"/>
<path d="M38.3057 31.8861C38.3087 31.8779 38.3108 31.8698 38.3138 31.8616C38.3108 31.8698 38.3087 31.8779 38.3057 31.8861Z" fill="#00AAE1"/>
<path d="M38.4683 18.689C38.4581 18.6409 38.451 18.5917 38.4397 18.5447C38.452 18.5917 38.4581 18.6409 38.4683 18.689Z" fill="#00AAE1"/>
<path d="M38.4397 31.4541C38.451 31.409 38.4581 31.362 38.4673 31.3159C38.4571 31.362 38.451 31.408 38.4397 31.4541Z" fill="#00AAE1"/>
<path d="M38.5267 30.9948C38.5461 30.8331 38.5594 30.6704 38.5594 30.5046C38.5594 30.6704 38.5471 30.8331 38.5267 30.9948Z" fill="#00AAE1"/>
<path d="M4.27619 37.9754C4.15647 37.8454 4.04596 37.7073 3.94568 37.563C4.04596 37.7073 4.15749 37.8444 4.27619 37.9754Z" fill="#00AAE1"/>
<path d="M46.3617 12.9404L46.3664 12.9485C46.3664 12.9485 46.3629 12.9439 46.3617 12.9404Z" fill="#00AAE1"/>
<path d="M45.3364 38.3509C45.4602 38.2476 45.58 38.1401 45.6895 38.0225C45.5789 38.1391 45.4613 38.2476 45.3364 38.3509Z" fill="#00AAE1"/>
<path d="M46.3607 37.0585L38.1245 32.3035L46.3607 37.0585Z" fill="#00AAE1"/>
<path d="M46.0711 12.4514C46.0865 12.475 46.0967 12.4985 46.111 12.521C46.0967 12.4985 46.0854 12.4739 46.0701 12.4514H46.0711Z" fill="#00AAE1"/>
<path d="M25.5231 39.9963C25.3502 40.0188 25.1772 40.0301 25.0033 40.0301C24.8293 40.0301 24.6564 40.0188 24.4835 39.9963C24.8283 40.0414 25.1783 40.0414 25.5231 39.9963Z" fill="#00AAE1"/>
<path d="M12.5554 16.7327C12.5411 16.748 12.5278 16.7644 12.5134 16.7797C12.5278 16.7644 12.54 16.748 12.5554 16.7327Z" fill="#00AAE1"/>
<path d="M27.016 0.998008C26.3929 0.638845 25.6981 0.458752 25.0033 0.458752C24.3085 0.458752 23.6137 0.638845 22.9916 0.998008L5.22272 11.2562C5.0549 11.3534 4.89732 11.4618 4.74792 11.5805C4.89732 11.4629 5.0549 11.3534 5.22272 11.2562L22.9916 0.998008C24.2369 0.278659 25.7707 0.278659 27.016 0.998008L44.7849 11.2562C44.9527 11.3534 45.1103 11.4629 45.2597 11.5805C45.1103 11.4618 44.9527 11.3534 44.7849 11.2562L27.016 0.998008Z" fill="#00AAE1"/>
<path d="M12.1819 17.1931C12.1819 17.1931 12.1758 17.2013 12.1737 17.2064C12.1768 17.2023 12.1798 17.1982 12.1819 17.1931Z" fill="#00AAE1"/>
<path d="M11.8831 17.6966C11.6068 18.2471 11.4482 18.8601 11.4482 19.4976V30.5027C11.4482 31.1402 11.6068 31.7521 11.8831 32.3036L3.64588 37.0597C3.73081 37.2296 3.82802 37.3923 3.93546 37.5488C3.47602 36.8858 3.211 36.0927 3.211 35.2588V14.7415C3.211 13.9075 3.47602 13.1145 3.93546 12.4514C3.82802 12.608 3.73081 12.7717 3.64588 12.9416L11.8831 17.6977V17.6966Z" fill="#009BCC"/>
<path d="M46.3617 37.0595C46.3617 37.0595 46.3658 37.0534 46.3668 37.0493C46.2809 37.2222 46.1827 37.389 46.0721 37.5487C46.1796 37.3921 46.2768 37.2294 46.3617 37.0595Z" fill="#00AAE1"/>
<path d="M46.5817 13.4703C46.5265 13.3087 46.4641 13.149 46.3894 12.9966C46.463 13.1501 46.5275 13.3077 46.5817 13.4703Z" fill="#00AAE1"/>
<path d="M37.8247 32.8068C37.8247 32.8068 37.8308 32.7975 37.8339 32.7935C37.8308 32.7975 37.8278 32.8027 37.8247 32.8068Z" fill="#00AAE1"/>
<path d="M46.724 14.027C46.6953 13.8725 46.6616 13.719 46.6155 13.5696C46.6616 13.719 46.6963 13.8714 46.724 14.027Z" fill="#00AAE1"/>
<path d="M45.6895 11.9764C45.58 11.8598 45.4603 11.7513 45.3354 11.6479C45.4603 11.7513 45.579 11.8598 45.6895 11.9764Z" fill="#00AAE1"/>
<path d="M46.0619 12.437C45.9616 12.2928 45.8501 12.1556 45.7314 12.0247C45.8511 12.1556 45.9616 12.2928 46.0619 12.437Z" fill="#00AAE1"/>
<path d="M46.3607 12.9404C46.2758 12.7716 46.1786 12.6089 46.0721 12.4534C46.1796 12.6089 46.2758 12.7716 46.3607 12.9404Z" fill="#00AAE1"/>
<path d="M46.3883 37.0053C46.4641 36.8507 46.5275 36.6901 46.5828 36.5264C46.5285 36.6901 46.463 36.8497 46.3883 37.0053Z" fill="#00AAE1"/>
<path d="M45.7314 37.9754C45.8501 37.8444 45.9616 37.7083 46.0619 37.563C45.9606 37.7073 45.8511 37.8444 45.7314 37.9754Z" fill="#00AAE1"/>
<path d="M46.7956 35.2585C46.7956 35.4571 46.7782 35.6525 46.7495 35.8459C46.7782 35.6535 46.7956 35.4571 46.7956 35.2585Z" fill="#00AAE1"/>
<path d="M46.6155 36.4314C46.6616 36.2809 46.6963 36.1275 46.725 35.9719C46.6974 36.1275 46.6616 36.2809 46.6155 36.4314Z" fill="#00AAE1"/>
<path d="M46.7956 14.7403C46.7956 14.5418 46.7782 14.3464 46.7495 14.155C46.7782 14.3474 46.7956 14.5428 46.7956 14.7403Z" fill="#00AAE1"/>
<path d="M12.9084 33.5959C12.935 33.6174 12.9585 33.643 12.9862 33.6645C12.9595 33.643 12.935 33.6185 12.9084 33.5959Z" fill="#00AAE1"/>
<path d="M37.4522 33.2673C37.4665 33.252 37.4798 33.2346 37.4942 33.2192C37.4798 33.2346 37.4665 33.252 37.4522 33.2673Z" fill="#00AAE1"/>
<path d="M12.5134 33.2192C12.5278 33.2346 12.5411 33.252 12.5554 33.2673C12.5411 33.252 12.5278 33.2346 12.5134 33.2192Z" fill="#00AAE1"/>
<path d="M37.0215 33.6633C37.0491 33.6418 37.0726 33.6172 37.0993 33.5947C37.0726 33.6172 37.0491 33.6418 37.0215 33.6633Z" fill="#00AAE1"/>
<path d="M4.67119 11.6479C4.54737 11.7513 4.42765 11.8598 4.31714 11.9764C4.42765 11.8598 4.54635 11.7513 4.67119 11.6479Z" fill="#00AAE1"/>
<path d="M4.27619 12.0247C4.15749 12.1556 4.04596 12.2928 3.94568 12.437C4.04698 12.2928 4.15647 12.1556 4.27619 12.0247Z" fill="#00AAE1"/>
<path d="M23.4705 39.7263C23.7979 39.8614 24.1386 39.9514 24.4835 39.9954C24.1386 39.9504 23.7979 39.8604 23.4705 39.7263Z" fill="#00AAE1"/>
<path d="M12.1727 32.7935C12.1727 32.7935 12.1788 32.8027 12.1819 32.8068C12.1788 32.8027 12.1757 32.7975 12.1727 32.7935Z" fill="#00AAE1"/>
<path d="M46.3607 12.9415L38.1245 17.6965C38.0396 17.5267 37.9424 17.3629 37.8339 17.2064C37.8308 17.2023 37.8278 17.1982 37.8257 17.1931C37.7254 17.0478 37.6129 16.9107 37.4942 16.7797C37.4799 16.7643 37.4676 16.748 37.4522 16.7326C37.3427 16.616 37.223 16.5075 37.0982 16.4042C37.0716 16.3827 37.0481 16.3581 37.0214 16.3366C36.8721 16.2179 36.7145 16.1095 36.5467 16.0122L27.015 10.5092C26.3929 10.15 25.6981 9.96991 25.0033 9.96991V0.45874C25.6981 0.45874 26.3929 0.638833 27.015 0.997997L44.7839 11.2561C44.9517 11.3534 45.1093 11.4618 45.2587 11.5805C45.2853 11.602 45.3088 11.6266 45.3354 11.6481C45.4592 11.7514 45.5789 11.8599 45.6895 11.9765C45.7038 11.9919 45.7171 12.0093 45.7314 12.0246C45.8501 12.1556 45.9616 12.2927 46.0619 12.437C46.065 12.4421 46.0681 12.4462 46.0711 12.4513C46.0865 12.4738 46.0977 12.4984 46.1121 12.5209C46.2021 12.657 46.287 12.7961 46.3607 12.9415Z" fill="#007296"/>
<path d="M46.3619 12.9404L46.3607 12.9416L46.3619 12.9404Z" fill="#00AAE1"/>
<path d="M22.9916 0.997997C23.6137 0.638833 24.3085 0.45874 25.0033 0.45874V9.96991C24.3085 9.96991 23.6137 10.15 22.9916 10.5092L13.4599 16.0122C13.2921 16.1095 13.1345 16.2179 12.9851 16.3366C12.9585 16.3581 12.935 16.3816 12.9084 16.4042C12.7846 16.5075 12.6638 16.616 12.5543 16.7326C12.54 16.748 12.5267 16.7643 12.5124 16.7797C12.3937 16.9107 12.2811 17.0478 12.1809 17.1931C12.1778 17.1972 12.1747 17.2013 12.1727 17.2064C12.0652 17.3629 11.968 17.5267 11.8821 17.6965L3.64587 12.9404C3.7308 12.7706 3.82801 12.6068 3.93546 12.4503C3.93853 12.4452 3.9416 12.4411 3.94467 12.436C4.04494 12.2917 4.15648 12.1546 4.27518 12.0236C4.2895 12.0082 4.3028 11.9908 4.31713 11.9755C4.42662 11.8588 4.54634 11.7504 4.67118 11.647C4.69778 11.6255 4.72132 11.601 4.74792 11.5795C4.89732 11.4608 5.0549 11.3523 5.22271 11.2551L22.9916 0.997997Z" fill="#008DBA"/>
<path d="M25.0033 40.0301C25.1772 40.0301 25.3502 40.0189 25.5231 39.9964C26.0409 39.9288 26.5484 39.76 27.015 39.4909L36.5467 33.9878C36.7145 33.8906 36.8721 33.7821 37.0215 33.6634C37.0481 33.6419 37.0726 33.6174 37.0992 33.5949C37.223 33.4915 37.3428 33.3841 37.4522 33.2664C37.4666 33.251 37.4799 33.2337 37.4942 33.2183C37.6129 33.0873 37.7244 32.9502 37.8257 32.8059C37.8288 32.8018 37.8319 32.7967 37.8349 32.7926C37.9424 32.6361 38.0396 32.4724 38.1255 32.3025L46.3617 37.0576C46.2758 37.2264 46.1806 37.3911 46.0722 37.5477C46.0691 37.5528 46.066 37.5569 46.0629 37.562C46.066 37.5569 46.0691 37.5528 46.0722 37.5477C46.1796 37.3911 46.2768 37.2284 46.3617 37.0586C46.2768 37.2284 46.1796 37.3922 46.0722 37.5477C46.0691 37.5528 46.066 37.5569 46.0629 37.562C45.9627 37.7063 45.8511 37.8434 45.7324 37.9744C45.7181 37.9898 45.7048 38.0071 45.6905 38.0225C45.581 38.1391 45.4613 38.2466 45.3375 38.351C45.3109 38.3735 45.2873 38.398 45.2597 38.4195C45.1103 38.5372 44.9527 38.6467 44.7849 38.7439L27.016 49.002C26.5494 49.2712 26.0419 49.44 25.5241 49.5075C25.3512 49.53 25.1783 49.5413 25.0043 49.5413V40.0301H25.0033Z" fill="#3BBFEF"/>
<path d="M3.93546 37.5487C3.82801 37.3921 3.7308 37.2294 3.64587 37.0596L11.8831 32.3035C11.968 32.4733 12.0652 32.637 12.1737 32.7936C12.1768 32.7977 12.1798 32.8028 12.1829 32.8069C12.2832 32.9512 12.3947 33.0883 12.5144 33.2193C12.5288 33.2346 12.5421 33.252 12.5564 33.2674C12.6659 33.384 12.7856 33.4915 12.9094 33.5958C12.936 33.6184 12.9596 33.6429 12.9872 33.6644C13.1366 33.7821 13.2942 33.8916 13.462 33.9888L15.2721 35.0335L12.5011 41.6069L21.4147 38.5801L22.9936 39.4918C23.1492 39.5819 23.3098 39.6607 23.4725 39.7282C23.7999 39.8633 24.1407 39.9533 24.4855 39.9973C24.6585 40.0198 24.8314 40.0311 25.0053 40.0311V49.5423C24.4845 49.5423 23.9637 49.441 23.4725 49.2394C23.3088 49.1719 23.1492 49.0931 22.9936 49.003L5.22271 38.7438C5.0549 38.6466 4.89732 38.5382 4.74792 38.4195C4.72132 38.398 4.69676 38.3734 4.67015 38.3509C4.54634 38.2476 4.42662 38.1401 4.31713 38.0225C4.30281 38.0071 4.2895 37.9897 4.27518 37.9744C4.15648 37.8434 4.04494 37.7073 3.94467 37.562C3.9416 37.5569 3.93853 37.5528 3.93546 37.5477V37.5487Z" fill="#00AAE1"/>
<path d="M38.1245 32.3035C38.192 32.1674 38.2534 32.0282 38.3067 31.886C38.3097 31.8778 38.3118 31.8696 38.3148 31.8614C38.3629 31.7284 38.4049 31.5933 38.4397 31.4552C38.4509 31.4102 38.4581 31.3631 38.4673 31.3171C38.4898 31.2106 38.5123 31.1042 38.5267 30.9958C38.5471 30.8341 38.5594 30.6714 38.5594 30.5056V19.4974C38.5594 19.3306 38.5471 19.1669 38.5267 19.0042C38.5133 18.8978 38.4908 18.7934 38.4683 18.689C38.4581 18.6409 38.4509 18.5918 38.4397 18.5448C38.4049 18.4087 38.364 18.2746 38.3159 18.1426C38.3128 18.1324 38.3097 18.1232 38.3056 18.1129C38.2524 17.9717 38.1931 17.8326 38.1255 17.6985V17.6965L46.3617 12.9414C46.3617 12.9414 46.3648 12.9465 46.3658 12.9486C46.374 12.9649 46.3822 12.9813 46.3904 12.9977C46.4651 13.1512 46.5275 13.3098 46.5828 13.4715C46.594 13.5042 46.6063 13.5369 46.6165 13.5707C46.6626 13.7201 46.6974 13.8726 46.725 14.0281C46.7332 14.0711 46.7444 14.112 46.7506 14.156C46.7792 14.3484 46.7966 14.5438 46.7966 14.7413V35.2597C46.7966 35.4582 46.7792 35.6536 46.7506 35.847C46.7444 35.89 46.7332 35.9309 46.725 35.9729C46.6963 36.1284 46.6615 36.2829 46.6155 36.4323C46.6053 36.4651 46.594 36.4958 46.5828 36.5285C46.5275 36.6922 46.4641 36.8529 46.3883 37.0074C46.3812 37.0217 46.374 37.0371 46.3668 37.0514C46.3648 37.0545 46.3628 37.0575 46.3617 37.0606L38.1255 32.3055L38.1245 32.3035Z" fill="#66CDF5"/>
<path d="M46.3617 37.0586C46.2768 37.2285 46.1796 37.3922 46.0721 37.5478C46.1806 37.3922 46.2758 37.2275 46.3617 37.0576V37.0586Z" fill="#00AAE1"/>
<path d="M46.3607 12.9415C46.287 12.7962 46.2031 12.657 46.1121 12.5209C46.0977 12.4994 46.0865 12.4749 46.0721 12.4534C46.1796 12.6089 46.2758 12.7716 46.3607 12.9404V12.9415Z" fill="#00AAE1"/>
<path d="M46.0619 37.5629C46.0619 37.5629 46.068 37.5537 46.0711 37.5486L46.0619 37.5629Z" fill="#00AAE1"/>
</g>
<defs>
<clipPath id="clip0_0_982">
<rect width="43.5846" height="49.0826" fill="white" transform="translate(3.211 0.45874)"/>
</clipPath>
</defs>
</svg>
