<svg width="221" height="220" viewBox="0 0 221 220" fill="none" xmlns="http://www.w3.org/2000/svg">
<path d="M60.3288 -0.000976562H53.6765V6.65131H60.3288V-0.000976562Z" fill="white"/>
<path d="M67.0403 -0.000976562H60.388V6.65131H67.0403V-0.000976562Z" fill="white"/>
<path d="M80.3591 -0.000976562H73.7068V6.65131H80.3591V-0.000976562Z" fill="white"/>
<path d="M93.6629 -0.000976562H87.0106V6.65131H93.6629V-0.000976562Z" fill="white"/>
<path d="M100.315 -0.000976562H93.6625V6.65131H100.315V-0.000976562Z" fill="white"/>
<path d="M113.619 -0.000976562H106.967V6.65131H113.619V-0.000976562Z" fill="white"/>
<path d="M120.242 -0.000976562H113.589V6.65131H120.242V-0.000976562Z" fill="white"/>
<path d="M126.879 -0.000976562H120.227V6.65131H126.879V-0.000976562Z" fill="white"/>
<path d="M146.864 -0.000976562H140.212V6.65131H146.864V-0.000976562Z" fill="white"/>
<path d="M60.3288 6.65112H53.6765V13.3034H60.3288V6.65112Z" fill="white"/>
<path d="M73.7067 6.65112H67.0544V13.3034H73.7067V6.65112Z" fill="white"/>
<path d="M86.9665 6.65112H80.3142V13.3034H86.9665V6.65112Z" fill="white"/>
<path d="M93.6629 6.65112H87.0106V13.3034H93.6629V6.65112Z" fill="white"/>
<path d="M100.315 6.65112H93.6625V13.3034H100.315V6.65112Z" fill="white"/>
<path d="M113.619 6.65112H106.967V13.3034H113.619V6.65112Z" fill="white"/>
<path d="M120.242 6.65112H113.589V13.3034H120.242V6.65112Z" fill="white"/>
<path d="M126.879 6.65112H120.227V13.3034H126.879V6.65112Z" fill="white"/>
<path d="M133.56 6.65112H126.908V13.3034H133.56V6.65112Z" fill="white"/>
<path d="M140.212 6.65112H133.56V13.3034H140.212V6.65112Z" fill="white"/>
<path d="M153.532 6.65112H146.879V13.3034H153.532V6.65112Z" fill="white"/>
<path d="M60.3288 13.3105H53.6765V19.9628H60.3288V13.3105Z" fill="white"/>
<path d="M67.0403 13.3105H60.388V19.9628H67.0403V13.3105Z" fill="white"/>
<path d="M73.7067 13.3105H67.0544V19.9628H73.7067V13.3105Z" fill="white"/>
<path d="M80.3591 13.3105H73.7068V19.9628H80.3591V13.3105Z" fill="white"/>
<path d="M86.9665 13.3105H80.3142V19.9628H86.9665V13.3105Z" fill="white"/>
<path d="M93.6629 13.3105H87.0106V19.9628H93.6629V13.3105Z" fill="white"/>
<path d="M100.315 13.3105H93.6625V19.9628H100.315V13.3105Z" fill="white"/>
<path d="M113.619 13.3105H106.967V19.9628H113.619V13.3105Z" fill="white"/>
<path d="M133.56 13.3105H126.908V19.9628H133.56V13.3105Z" fill="white"/>
<path d="M140.212 13.3105H133.56V19.9628H140.212V13.3105Z" fill="white"/>
<path d="M146.864 13.3105H140.212V19.9628H146.864V13.3105Z" fill="white"/>
<path d="M160.139 13.3105H153.487V19.9628H160.139V13.3105Z" fill="white"/>
<path d="M166.851 13.3105H160.198V19.9628H166.851V13.3105Z" fill="white"/>
<path d="M67.0403 19.9551H60.388V26.6074H67.0403V19.9551Z" fill="white"/>
<path d="M73.7067 19.9551H67.0544V26.6074H73.7067V19.9551Z" fill="white"/>
<path d="M80.3591 19.9551H73.7068V26.6074H80.3591V19.9551Z" fill="white"/>
<path d="M100.315 19.9551H93.6625V26.6074H100.315V19.9551Z" fill="white"/>
<path d="M113.619 19.9551H106.967V26.6074H113.619V19.9551Z" fill="white"/>
<path d="M120.242 19.9551H113.589V26.6074H120.242V19.9551Z" fill="white"/>
<path d="M140.212 19.9551H133.56V26.6074H140.212V19.9551Z" fill="white"/>
<path d="M166.851 19.9551H160.198V26.6074H166.851V19.9551Z" fill="white"/>
<path d="M60.3288 26.6072H53.6765V33.2595H60.3288V26.6072Z" fill="white"/>
<path d="M73.7067 26.6072H67.0544V33.2595H73.7067V26.6072Z" fill="white"/>
<path d="M93.6629 26.6072H87.0106V33.2595H93.6629V26.6072Z" fill="white"/>
<path d="M106.982 26.6072H100.329V33.2595H106.982V26.6072Z" fill="white"/>
<path d="M113.619 26.6072H106.967V33.2595H113.619V26.6072Z" fill="white"/>
<path d="M133.56 26.6072H126.908V33.2595H133.56V26.6072Z" fill="white"/>
<path d="M146.864 26.6072H140.212V33.2595H146.864V26.6072Z" fill="white"/>
<path d="M153.532 26.6072H146.879V33.2595H153.532V26.6072Z" fill="white"/>
<path d="M93.6629 33.259H87.0106V39.9113H93.6629V33.259Z" fill="white"/>
<path d="M100.315 33.259H93.6625V39.9113H100.315V33.259Z" fill="white"/>
<path d="M106.982 33.259H100.329V39.9113H106.982V33.259Z" fill="white"/>
<path d="M113.619 33.259H106.967V39.9113H113.619V33.259Z" fill="white"/>
<path d="M140.212 33.259H133.56V39.9113H140.212V33.259Z" fill="white"/>
<path d="M160.139 33.259H153.487V39.9113H160.139V33.259Z" fill="white"/>
<path d="M166.851 33.259H160.198V39.9113H166.851V33.259Z" fill="white"/>
<path d="M60.3288 39.9113H53.6765V46.5635H60.3288V39.9113Z" fill="white"/>
<path d="M73.7067 39.9113H67.0544V46.5635H73.7067V39.9113Z" fill="white"/>
<path d="M86.9665 39.9113H80.3142V46.5635H86.9665V39.9113Z" fill="white"/>
<path d="M100.315 39.9113H93.6625V46.5635H100.315V39.9113Z" fill="white"/>
<path d="M113.619 39.9113H106.967V46.5635H113.619V39.9113Z" fill="white"/>
<path d="M126.879 39.9113H120.227V46.5635H126.879V39.9113Z" fill="white"/>
<path d="M140.212 39.9113H133.56V46.5635H140.212V39.9113Z" fill="white"/>
<path d="M153.532 39.9113H146.879V46.5635H153.532V39.9113Z" fill="white"/>
<path d="M166.851 39.9113H160.198V46.5635H166.851V39.9113Z" fill="white"/>
<path d="M67.0403 46.5709H60.388V53.2232H67.0403V46.5709Z" fill="white"/>
<path d="M80.3591 46.5709H73.7068V53.2232H80.3591V46.5709Z" fill="white"/>
<path d="M93.6629 46.5709H87.0106V53.2232H93.6629V46.5709Z" fill="white"/>
<path d="M100.315 46.5709H93.6625V53.2232H100.315V46.5709Z" fill="white"/>
<path d="M106.982 46.5709H100.329V53.2232H106.982V46.5709Z" fill="white"/>
<path d="M113.619 46.5709H106.967V53.2232H113.619V46.5709Z" fill="white"/>
<path d="M133.56 46.5709H126.908V53.2232H133.56V46.5709Z" fill="white"/>
<path d="M7.17152 53.2153H0.519226V59.8676H7.17152V53.2153Z" fill="white"/>
<path d="M27.1868 53.2153H20.5345V59.8676H27.1868V53.2153Z" fill="white"/>
<path d="M33.7797 53.2153H27.1274V59.8676H33.7797V53.2153Z" fill="white"/>
<path d="M40.4316 53.2153H33.7793V59.8676H40.4316V53.2153Z" fill="white"/>
<path d="M47.025 53.2153H40.3727V59.8676H47.025V53.2153Z" fill="white"/>
<path d="M53.6914 53.2153H47.0391V59.8676H53.6914V53.2153Z" fill="white"/>
<path d="M60.3288 53.2153H53.6765V59.8676H60.3288V53.2153Z" fill="white"/>
<path d="M67.0403 53.2153H60.388V59.8676H67.0403V53.2153Z" fill="white"/>
<path d="M86.9665 53.2153H80.3142V59.8676H86.9665V53.2153Z" fill="white"/>
<path d="M100.315 53.2153H93.6625V59.8676H100.315V53.2153Z" fill="white"/>
<path d="M120.242 53.2153H113.589V59.8676H120.242V53.2153Z" fill="white"/>
<path d="M133.56 53.2153H126.908V59.8676H133.56V53.2153Z" fill="white"/>
<path d="M140.212 53.2153H133.56V59.8676H140.212V53.2153Z" fill="white"/>
<path d="M173.458 53.2153H166.806V59.8676H173.458V53.2153Z" fill="white"/>
<path d="M193.429 53.2153H186.777V59.8676H193.429V53.2153Z" fill="white"/>
<path d="M206.719 53.2153H200.066V59.8676H206.719V53.2153Z" fill="white"/>
<path d="M213.4 53.2153H206.748V59.8676H213.4V53.2153Z" fill="white"/>
<path d="M220.007 53.2153H213.355V59.8676H220.007V53.2153Z" fill="white"/>
<path d="M7.17152 59.875H0.519226V66.5273H7.17152V59.875Z" fill="white"/>
<path d="M20.4753 59.875H13.823V66.5273H20.4753V59.875Z" fill="white"/>
<path d="M60.3288 59.875H53.6765V66.5273H60.3288V59.875Z" fill="white"/>
<path d="M67.0403 59.875H60.388V66.5273H67.0403V59.875Z" fill="white"/>
<path d="M73.7067 59.875H67.0544V66.5273H73.7067V59.875Z" fill="white"/>
<path d="M80.3591 59.875H73.7068V66.5273H80.3591V59.875Z" fill="white"/>
<path d="M93.6629 59.875H87.0106V66.5273H93.6629V59.875Z" fill="white"/>
<path d="M100.315 59.875H93.6625V66.5273H100.315V59.875Z" fill="white"/>
<path d="M106.982 59.875H100.329V66.5273H106.982V59.875Z" fill="white"/>
<path d="M126.879 59.875H120.227V66.5273H126.879V59.875Z" fill="white"/>
<path d="M133.56 59.875H126.908V66.5273H133.56V59.875Z" fill="white"/>
<path d="M146.864 59.875H140.212V66.5273H146.864V59.875Z" fill="white"/>
<path d="M153.532 59.875H146.879V66.5273H153.532V59.875Z" fill="white"/>
<path d="M160.139 59.875H153.487V66.5273H160.139V59.875Z" fill="white"/>
<path d="M193.429 59.875H186.777V66.5273H193.429V59.875Z" fill="white"/>
<path d="M200.051 59.875H193.399V66.5273H200.051V59.875Z" fill="white"/>
<path d="M206.719 59.875H200.066V66.5273H206.719V59.875Z" fill="white"/>
<path d="M7.17152 66.5266H0.519226V73.1789H7.17152V66.5266Z" fill="white"/>
<path d="M13.7789 66.527H7.12659V73.1793H13.7789V66.527Z" fill="white"/>
<path d="M20.4753 66.527H13.823V73.1793H20.4753V66.527Z" fill="white"/>
<path d="M27.187 66.5266H20.5347V73.1789H27.187V66.5266Z" fill="white"/>
<path d="M33.7797 66.527H27.1274V73.1793H33.7797V66.527Z" fill="white"/>
<path d="M40.4316 66.527H33.7793V73.1793H40.4316V66.527Z" fill="white"/>
<path d="M47.025 66.527H40.3727V73.1793H47.025V66.527Z" fill="white"/>
<path d="M60.3288 66.527H53.6765V73.1793H60.3288V66.527Z" fill="white"/>
<path d="M80.3591 66.527H73.7068V73.1793H80.3591V66.527Z" fill="white"/>
<path d="M93.6629 66.527H87.0106V73.1793H93.6629V66.527Z" fill="white"/>
<path d="M106.982 66.527H100.329V73.1793H106.982V66.527Z" fill="white"/>
<path d="M120.242 66.5266H113.589V73.1789H120.242V66.5266Z" fill="white"/>
<path d="M153.532 66.527H146.879V73.1793H153.532V66.527Z" fill="white"/>
<path d="M160.139 66.527H153.487V73.1793H160.139V66.527Z" fill="white"/>
<path d="M180.11 66.527H173.458V73.1793H180.11V66.527Z" fill="white"/>
<path d="M193.429 66.527H186.777V73.1793H193.429V66.527Z" fill="white"/>
<path d="M200.051 66.527H193.399V73.1793H200.051V66.527Z" fill="white"/>
<path d="M206.719 66.527H200.066V73.1793H206.719V66.527Z" fill="white"/>
<path d="M213.4 66.527H206.748V73.1793H213.4V66.527Z" fill="white"/>
<path d="M220.007 66.527H213.355V73.1793H220.007V66.527Z" fill="white"/>
<path d="M13.7789 73.1791H7.12659V79.8314H13.7789V73.1791Z" fill="white"/>
<path d="M33.7797 73.1791H27.1274V79.8314H33.7797V73.1791Z" fill="white"/>
<path d="M40.4316 73.1791H33.7793V79.8314H40.4316V73.1791Z" fill="white"/>
<path d="M53.6914 73.1791H47.0391V79.8314H53.6914V73.1791Z" fill="white"/>
<path d="M60.3288 73.1791H53.6765V79.8314H60.3288V73.1791Z" fill="white"/>
<path d="M73.7067 73.1791H67.0544V79.8314H73.7067V73.1791Z" fill="white"/>
<path d="M80.3591 73.1791H73.7068V79.8314H80.3591V73.1791Z" fill="white"/>
<path d="M86.9665 73.1791H80.3142V79.8314H86.9665V73.1791Z" fill="white"/>
<path d="M93.6629 73.1791H87.0106V79.8314H93.6629V73.1791Z" fill="white"/>
<path d="M106.982 73.1791H100.329V79.8314H106.982V73.1791Z" fill="white"/>
<path d="M113.619 73.1791H106.967V79.8314H113.619V73.1791Z" fill="white"/>
<path d="M120.242 73.1791H113.589V79.8314H120.242V73.1791Z" fill="white"/>
<path d="M126.879 73.1791H120.227V79.8314H126.879V73.1791Z" fill="white"/>
<path d="M133.56 73.1791H126.908V79.8314H133.56V73.1791Z" fill="white"/>
<path d="M160.139 73.1791H153.487V79.8314H160.139V73.1791Z" fill="white"/>
<path d="M173.458 73.1791H166.806V79.8314H173.458V73.1791Z" fill="white"/>
<path d="M186.807 73.1791H180.155V79.8314H186.807V73.1791Z" fill="white"/>
<path d="M206.719 73.1791H200.066V79.8314H206.719V73.1791Z" fill="white"/>
<path d="M213.4 73.1791H206.748V79.8314H213.4V73.1791Z" fill="white"/>
<path d="M220.007 73.1791H213.355V79.8314H220.007V73.1791Z" fill="white"/>
<path d="M7.17152 79.8311H0.519226V86.4833H7.17152V79.8311Z" fill="white"/>
<path d="M13.7789 79.8311H7.12659V86.4833H13.7789V79.8311Z" fill="white"/>
<path d="M20.4753 79.8311H13.823V86.4833H20.4753V79.8311Z" fill="white"/>
<path d="M27.187 79.8311H20.5347V86.4833H27.187V79.8311Z" fill="white"/>
<path d="M47.025 79.8311H40.3727V86.4833H47.025V79.8311Z" fill="white"/>
<path d="M60.3288 79.8311H53.6765V86.4833H60.3288V79.8311Z" fill="white"/>
<path d="M73.7067 79.8311H67.0544V86.4833H73.7067V79.8311Z" fill="white"/>
<path d="M80.3591 79.8311H73.7068V86.4833H80.3591V79.8311Z" fill="white"/>
<path d="M93.6629 79.8311H87.0106V86.4833H93.6629V79.8311Z" fill="white"/>
<path d="M106.982 79.8311H100.329V86.4833H106.982V79.8311Z" fill="white"/>
<path d="M113.619 79.8311H106.967V86.4833H113.619V79.8311Z" fill="white"/>
<path d="M126.879 79.8311H120.227V86.4833H126.879V79.8311Z" fill="white"/>
<path d="M133.56 79.8311H126.908V86.4833H133.56V79.8311Z" fill="white"/>
<path d="M140.212 79.8311H133.56V86.4833H140.212V79.8311Z" fill="white"/>
<path d="M166.851 79.8311H160.198V86.4833H166.851V79.8311Z" fill="white"/>
<path d="M180.11 79.8311H173.458V86.4833H180.11V79.8311Z" fill="white"/>
<path d="M7.17152 86.4756H0.519226V93.1279H7.17152V86.4756Z" fill="white"/>
<path d="M20.4753 86.4757H13.823V93.128H20.4753V86.4757Z" fill="white"/>
<path d="M33.7797 86.4757H27.1274V93.128H33.7797V86.4757Z" fill="white"/>
<path d="M40.4316 86.4757H33.7793V93.128H40.4316V86.4757Z" fill="white"/>
<path d="M80.3591 86.4757H73.7068V93.128H80.3591V86.4757Z" fill="white"/>
<path d="M86.9665 86.4757H80.3142V93.128H86.9665V86.4757Z" fill="white"/>
<path d="M93.6629 86.4757H87.0106V93.128H93.6629V86.4757Z" fill="white"/>
<path d="M100.315 86.4757H93.6625V93.128H100.315V86.4757Z" fill="white"/>
<path d="M126.879 86.4757H120.227V93.128H126.879V86.4757Z" fill="white"/>
<path d="M153.532 86.4757H146.879V93.128H153.532V86.4757Z" fill="white"/>
<path d="M160.139 86.4757H153.487V93.128H160.139V86.4757Z" fill="white"/>
<path d="M186.807 86.4757H180.155V93.128H186.807V86.4757Z" fill="white"/>
<path d="M13.7789 93.1351H7.12659V99.7874H13.7789V93.1351Z" fill="white"/>
<path d="M20.4753 93.1351H13.823V99.7874H20.4753V93.1351Z" fill="white"/>
<path d="M27.187 93.1355H20.5347V99.7878H27.187V93.1355Z" fill="white"/>
<path d="M33.7797 93.1351H27.1274V99.7874H33.7797V93.1351Z" fill="white"/>
<path d="M47.025 93.1351H40.3727V99.7874H47.025V93.1351Z" fill="white"/>
<path d="M60.3288 93.1351H53.6765V99.7874H60.3288V93.1351Z" fill="white"/>
<path d="M67.0403 93.1351H60.388V99.7874H67.0403V93.1351Z" fill="white"/>
<path d="M80.3591 93.1351H73.7068V99.7874H80.3591V93.1351Z" fill="white"/>
<path d="M86.9665 93.1351H80.3142V99.7874H86.9665V93.1351Z" fill="white"/>
<path d="M106.982 93.1351H100.329V99.7874H106.982V93.1351Z" fill="white"/>
<path d="M113.619 93.1351H106.967V99.7874H113.619V93.1351Z" fill="white"/>
<path d="M120.242 93.1355H113.589V99.7878H120.242V93.1355Z" fill="white"/>
<path d="M126.879 93.1351H120.227V99.7874H126.879V93.1351Z" fill="white"/>
<path d="M133.56 93.1351H126.908V99.7874H133.56V93.1351Z" fill="white"/>
<path d="M146.864 93.1351H140.212V99.7874H146.864V93.1351Z" fill="white"/>
<path d="M153.532 93.1351H146.879V99.7874H153.532V93.1351Z" fill="white"/>
<path d="M180.11 93.1351H173.458V99.7874H180.11V93.1351Z" fill="white"/>
<path d="M206.719 93.1351H200.066V99.7874H206.719V93.1351Z" fill="white"/>
<path d="M7.17152 99.7802H0.519226V106.432H7.17152V99.7802Z" fill="white"/>
<path d="M20.4753 99.7798H13.823V106.432H20.4753V99.7798Z" fill="white"/>
<path d="M53.6914 99.7798H47.0391V106.432H53.6914V99.7798Z" fill="white"/>
<path d="M60.3288 99.7798H53.6765V106.432H60.3288V99.7798Z" fill="white"/>
<path d="M67.0403 99.7798H60.388V106.432H67.0403V99.7798Z" fill="white"/>
<path d="M73.7067 99.7798H67.0544V106.432H73.7067V99.7798Z" fill="white"/>
<path d="M86.9665 99.7874H80.3142V106.44H86.9665V99.7874Z" fill="white"/>
<path d="M93.6629 99.7798H87.0106V106.432H93.6629V99.7798Z" fill="white"/>
<path d="M100.315 99.7798H93.6625V106.432H100.315V99.7798Z" fill="white"/>
<path d="M133.56 99.7798H126.908V106.432H133.56V99.7798Z" fill="white"/>
<path d="M140.212 99.7798H133.56V106.432H140.212V99.7798Z" fill="white"/>
<path d="M160.139 99.7798H153.487V106.432H160.139V99.7798Z" fill="white"/>
<path d="M173.458 99.7798H166.806V106.432H173.458V99.7798Z" fill="white"/>
<path d="M186.807 99.7798H180.155V106.432H186.807V99.7798Z" fill="white"/>
<path d="M200.051 99.7874H193.399V106.44H200.051V99.7874Z" fill="white"/>
<path d="M206.719 99.7798H200.066V106.432H206.719V99.7798Z" fill="white"/>
<path d="M220.007 99.7798H213.355V106.432H220.007V99.7798Z" fill="white"/>
<path d="M27.1868 106.432H20.5345V113.084H27.1868V106.432Z" fill="white"/>
<path d="M40.4316 106.432H33.7793V113.084H40.4316V106.432Z" fill="white"/>
<path d="M47.025 106.432H40.3727V113.084H47.025V106.432Z" fill="white"/>
<path d="M73.7067 106.432H67.0544V113.084H73.7067V106.432Z" fill="white"/>
<path d="M80.3591 106.439H73.7068V113.092H80.3591V106.439Z" fill="white"/>
<path d="M153.532 106.439H146.879V113.092H153.532V106.439Z" fill="white"/>
<path d="M166.851 106.432H160.198V113.084H166.851V106.432Z" fill="white"/>
<path d="M173.458 106.432H166.806V113.084H173.458V106.432Z" fill="white"/>
<path d="M180.11 106.432H173.458V113.084H180.11V106.432Z" fill="white"/>
<path d="M186.807 106.432H180.155V113.084H186.807V106.432Z" fill="white"/>
<path d="M193.429 106.432H186.777V113.084H193.429V106.432Z" fill="white"/>
<path d="M20.4753 113.076H13.823V119.729H20.4753V113.076Z" fill="white"/>
<path d="M27.1868 113.076H20.5345V119.729H27.1868V113.076Z" fill="white"/>
<path d="M53.6914 113.076H47.0391V119.729H53.6914V113.076Z" fill="white"/>
<path d="M93.6629 113.076H87.0106V119.729H93.6629V113.076Z" fill="white"/>
<path d="M106.982 113.076H100.329V119.729H106.982V113.076Z" fill="white"/>
<path d="M126.879 113.076H120.227V119.729H126.879V113.076Z" fill="white"/>
<path d="M133.56 113.076H126.908V119.729H133.56V113.076Z" fill="white"/>
<path d="M140.212 113.076H133.56V119.729H140.212V113.076Z" fill="white"/>
<path d="M166.851 113.076H160.198V119.729H166.851V113.076Z" fill="white"/>
<path d="M180.11 113.076H173.458V119.729H180.11V113.076Z" fill="white"/>
<path d="M193.429 113.076H186.777V119.729H193.429V113.076Z" fill="white"/>
<path d="M206.719 113.076H200.066V119.729H206.719V113.076Z" fill="white"/>
<path d="M220.007 113.076H213.355V119.729H220.007V113.076Z" fill="white"/>
<path d="M13.7789 119.743H7.12659V126.396H13.7789V119.743Z" fill="white"/>
<path d="M33.7797 119.743H27.1274V126.396H33.7797V119.743Z" fill="white"/>
<path d="M47.025 119.743H40.3727V126.396H47.025V119.743Z" fill="white"/>
<path d="M60.3288 119.743H53.6765V126.396H60.3288V119.743Z" fill="white"/>
<path d="M73.7067 119.743H67.0544V126.396H73.7067V119.743Z" fill="white"/>
<path d="M80.3591 119.743H73.7068V126.396H80.3591V119.743Z" fill="white"/>
<path d="M106.982 119.743H100.329V126.396H106.982V119.743Z" fill="white"/>
<path d="M133.56 119.743H126.908V126.396H133.56V119.743Z" fill="white"/>
<path d="M140.212 119.743H133.56V126.396H140.212V119.743Z" fill="white"/>
<path d="M153.532 119.743H146.879V126.396H153.532V119.743Z" fill="white"/>
<path d="M160.139 119.743H153.487V126.396H160.139V119.743Z" fill="white"/>
<path d="M166.851 119.743H160.198V126.396H166.851V119.743Z" fill="white"/>
<path d="M173.458 119.743H166.806V126.396H173.458V119.743Z" fill="white"/>
<path d="M180.11 119.743H173.458V126.396H180.11V119.743Z" fill="white"/>
<path d="M186.807 119.743H180.155V126.396H186.807V119.743Z" fill="white"/>
<path d="M200.051 119.736H193.399V126.388H200.051V119.736Z" fill="white"/>
<path d="M206.719 119.743H200.066V126.396H206.719V119.743Z" fill="white"/>
<path d="M213.4 119.743H206.748V126.396H213.4V119.743Z" fill="white"/>
<path d="M220.007 119.743H213.355V126.396H220.007V119.743Z" fill="white"/>
<path d="M13.7789 126.396H7.12659V133.048H13.7789V126.396Z" fill="white"/>
<path d="M20.4753 126.396H13.823V133.048H20.4753V126.396Z" fill="white"/>
<path d="M27.1868 126.396H20.5345V133.048H27.1868V126.396Z" fill="white"/>
<path d="M53.6914 126.396H47.0391V133.048H53.6914V126.396Z" fill="white"/>
<path d="M73.7067 126.396H67.0544V133.048H73.7067V126.396Z" fill="white"/>
<path d="M100.315 126.396H93.6625V133.048H100.315V126.396Z" fill="white"/>
<path d="M113.619 126.396H106.967V133.048H113.619V126.396Z" fill="white"/>
<path d="M126.879 126.396H120.227V133.048H126.879V126.396Z" fill="white"/>
<path d="M166.851 126.396H160.198V133.048H166.851V126.396Z" fill="white"/>
<path d="M173.458 126.396H166.806V133.048H173.458V126.396Z" fill="white"/>
<path d="M193.429 126.396H186.777V133.048H193.429V126.396Z" fill="white"/>
<path d="M200.051 126.396H193.399V133.048H200.051V126.396Z" fill="white"/>
<path d="M206.719 126.396H200.066V133.048H206.719V126.396Z" fill="white"/>
<path d="M13.7789 133.04H7.12659V139.692H13.7789V133.04Z" fill="white"/>
<path d="M20.4753 133.04H13.823V139.692H20.4753V133.04Z" fill="white"/>
<path d="M47.025 133.04H40.3727V139.692H47.025V133.04Z" fill="white"/>
<path d="M53.6914 133.04H47.0391V139.692H53.6914V133.04Z" fill="white"/>
<path d="M60.3288 133.04H53.6765V139.692H60.3288V133.04Z" fill="white"/>
<path d="M67.0403 133.04H60.388V139.692H67.0403V133.04Z" fill="white"/>
<path d="M73.7067 133.04H67.0544V139.692H73.7067V133.04Z" fill="white"/>
<path d="M93.6629 133.04H87.0106V139.692H93.6629V133.04Z" fill="white"/>
<path d="M106.982 133.04H100.329V139.692H106.982V133.04Z" fill="white"/>
<path d="M113.619 133.04H106.967V139.692H113.619V133.04Z" fill="white"/>
<path d="M120.242 133.04H113.589V139.692H120.242V133.04Z" fill="white"/>
<path d="M140.212 133.04H133.56V139.692H140.212V133.04Z" fill="white"/>
<path d="M166.851 133.04H160.198V139.692H166.851V133.04Z" fill="white"/>
<path d="M186.807 133.04H180.155V139.692H186.807V133.04Z" fill="white"/>
<path d="M200.051 133.04H193.399V139.692H200.051V133.04Z" fill="white"/>
<path d="M220.007 133.04H213.355V139.692H220.007V133.04Z" fill="white"/>
<path d="M7.17152 139.699H0.519226V146.352H7.17152V139.699Z" fill="white"/>
<path d="M33.7797 139.699H27.1274V146.352H33.7797V139.699Z" fill="white"/>
<path d="M40.4316 139.699H33.7793V146.352H40.4316V139.699Z" fill="white"/>
<path d="M60.3288 139.699H53.6765V146.352H60.3288V139.699Z" fill="white"/>
<path d="M67.0403 139.699H60.388V146.352H67.0403V139.699Z" fill="white"/>
<path d="M80.3591 139.699H73.7068V146.352H80.3591V139.699Z" fill="white"/>
<path d="M86.9665 139.699H80.3142V146.352H86.9665V139.699Z" fill="white"/>
<path d="M106.982 139.699H100.329V146.352H106.982V139.699Z" fill="white"/>
<path d="M120.242 139.699H113.589V146.352H120.242V139.699Z" fill="white"/>
<path d="M126.879 139.699H120.227V146.352H126.879V139.699Z" fill="white"/>
<path d="M133.56 139.699H126.908V146.352H133.56V139.699Z" fill="white"/>
<path d="M153.532 139.699H146.879V146.352H153.532V139.699Z" fill="white"/>
<path d="M160.139 139.699H153.487V146.352H160.139V139.699Z" fill="white"/>
<path d="M173.458 139.699H166.806V146.352H173.458V139.699Z" fill="white"/>
<path d="M180.11 139.699H173.458V146.352H180.11V139.699Z" fill="white"/>
<path d="M193.429 139.699H186.777V146.352H193.429V139.699Z" fill="white"/>
<path d="M200.051 139.699H193.399V146.352H200.051V139.699Z" fill="white"/>
<path d="M206.719 139.699H200.066V146.352H206.719V139.699Z" fill="white"/>
<path d="M7.17152 146.344H0.519226V152.997H7.17152V146.344Z" fill="white"/>
<path d="M27.1868 146.351H20.5345V153.004H27.1868V146.351Z" fill="white"/>
<path d="M33.7797 146.351H27.1274V153.004H33.7797V146.351Z" fill="white"/>
<path d="M47.025 146.351H40.3727V153.004H47.025V146.351Z" fill="white"/>
<path d="M53.6914 146.351H47.0391V153.004H53.6914V146.351Z" fill="white"/>
<path d="M67.0403 146.351H60.388V153.004H67.0403V146.351Z" fill="white"/>
<path d="M86.9665 146.351H80.3142V153.004H86.9665V146.351Z" fill="white"/>
<path d="M93.6629 146.351H87.0106V153.004H93.6629V146.351Z" fill="white"/>
<path d="M106.982 146.351H100.329V153.004H106.982V146.351Z" fill="white"/>
<path d="M113.619 146.351H106.967V153.004H113.619V146.351Z" fill="white"/>
<path d="M126.879 146.351H120.227V153.004H126.879V146.351Z" fill="white"/>
<path d="M146.864 146.351H140.212V153.004H146.864V146.351Z" fill="white"/>
<path d="M153.532 146.344H146.879V152.997H153.532V146.344Z" fill="white"/>
<path d="M160.139 146.351H153.487V153.004H160.139V146.351Z" fill="white"/>
<path d="M180.11 146.351H173.458V153.004H180.11V146.351Z" fill="white"/>
<path d="M186.807 146.351H180.155V153.004H186.807V146.351Z" fill="white"/>
<path d="M200.051 146.351H193.399V153.004H200.051V146.351Z" fill="white"/>
<path d="M206.719 146.351H200.066V153.004H206.719V146.351Z" fill="white"/>
<path d="M213.4 146.351H206.748V153.004H213.4V146.351Z" fill="white"/>
<path d="M220.007 146.351H213.355V153.004H220.007V146.351Z" fill="white"/>
<path d="M7.17152 152.996H0.519226V159.648H7.17152V152.996Z" fill="white"/>
<path d="M20.4753 152.996H13.823V159.648H20.4753V152.996Z" fill="white"/>
<path d="M27.1868 152.996H20.5345V159.648H27.1868V152.996Z" fill="white"/>
<path d="M33.7797 152.996H27.1274V159.648H33.7797V152.996Z" fill="white"/>
<path d="M40.4316 152.996H33.7793V159.648H40.4316V152.996Z" fill="white"/>
<path d="M67.0403 152.996H60.388V159.648H67.0403V152.996Z" fill="white"/>
<path d="M73.7067 152.996H67.0544V159.648H73.7067V152.996Z" fill="white"/>
<path d="M86.9665 152.996H80.3142V159.648H86.9665V152.996Z" fill="white"/>
<path d="M100.315 152.996H93.6625V159.648H100.315V152.996Z" fill="white"/>
<path d="M120.242 152.996H113.589V159.648H120.242V152.996Z" fill="white"/>
<path d="M153.532 152.996H146.879V159.648H153.532V152.996Z" fill="white"/>
<path d="M166.851 152.996H160.198V159.648H166.851V152.996Z" fill="white"/>
<path d="M173.458 152.996H166.806V159.648H173.458V152.996Z" fill="white"/>
<path d="M186.807 152.996H180.155V159.648H186.807V152.996Z" fill="white"/>
<path d="M206.719 152.996H200.066V159.648H206.719V152.996Z" fill="white"/>
<path d="M213.4 152.996H206.748V159.648H213.4V152.996Z" fill="white"/>
<path d="M220.007 152.996H213.355V159.648H220.007V152.996Z" fill="white"/>
<path d="M7.17152 159.648H0.519226V166.301H7.17152V159.648Z" fill="white"/>
<path d="M13.7789 159.648H7.12659V166.301H13.7789V159.648Z" fill="white"/>
<path d="M20.4753 159.648H13.823V166.301H20.4753V159.648Z" fill="white"/>
<path d="M33.7797 159.648H27.1274V166.301H33.7797V159.648Z" fill="white"/>
<path d="M40.4316 159.648H33.7793V166.301H40.4316V159.648Z" fill="white"/>
<path d="M47.025 159.648H40.3727V166.301H47.025V159.648Z" fill="white"/>
<path d="M53.6914 159.648H47.0391V166.301H53.6914V159.648Z" fill="white"/>
<path d="M60.3288 159.648H53.6765V166.301H60.3288V159.648Z" fill="white"/>
<path d="M80.3591 159.648H73.7068V166.301H80.3591V159.648Z" fill="white"/>
<path d="M86.9665 159.648H80.3142V166.301H86.9665V159.648Z" fill="white"/>
<path d="M100.315 159.648H93.6625V166.301H100.315V159.648Z" fill="white"/>
<path d="M140.212 159.648H133.56V166.301H140.212V159.648Z" fill="white"/>
<path d="M160.139 159.648H153.487V166.301H160.139V159.648Z" fill="white"/>
<path d="M166.851 159.648H160.198V166.301H166.851V159.648Z" fill="white"/>
<path d="M173.458 159.648H166.806V166.301H173.458V159.648Z" fill="white"/>
<path d="M180.11 159.648H173.458V166.301H180.11V159.648Z" fill="white"/>
<path d="M186.807 159.648H180.155V166.301H186.807V159.648Z" fill="white"/>
<path d="M193.429 159.648H186.777V166.301H193.429V159.648Z" fill="white"/>
<path d="M200.051 159.648H193.399V166.301H200.051V159.648Z" fill="white"/>
<path d="M213.4 159.648H206.748V166.301H213.4V159.648Z" fill="white"/>
<path d="M60.3288 166.315H53.6765V172.967H60.3288V166.315Z" fill="white"/>
<path d="M80.3591 166.315H73.7068V172.967H80.3591V166.315Z" fill="white"/>
<path d="M86.9665 166.315H80.3142V172.967H86.9665V166.315Z" fill="white"/>
<path d="M93.6629 166.315H87.0106V172.967H93.6629V166.315Z" fill="white"/>
<path d="M100.315 166.315H93.6625V172.967H100.315V166.315Z" fill="white"/>
<path d="M106.982 166.315H100.329V172.967H106.982V166.315Z" fill="white"/>
<path d="M113.619 166.315H106.967V172.967H113.619V166.315Z" fill="white"/>
<path d="M120.242 166.315H113.589V172.967H120.242V166.315Z" fill="white"/>
<path d="M126.879 166.315H120.227V172.967H126.879V166.315Z" fill="white"/>
<path d="M140.212 166.315H133.56V172.967H140.212V166.315Z" fill="white"/>
<path d="M160.139 166.315H153.487V172.967H160.139V166.315Z" fill="white"/>
<path d="M166.851 166.315H160.198V172.967H166.851V166.315Z" fill="white"/>
<path d="M193.429 166.315H186.777V172.967H193.429V166.315Z" fill="white"/>
<path d="M206.719 166.315H200.066V172.967H206.719V166.315Z" fill="white"/>
<path d="M213.4 166.315H206.748V172.967H213.4V166.315Z" fill="white"/>
<path d="M60.3288 172.967H53.6765V179.619H60.3288V172.967Z" fill="white"/>
<path d="M80.3591 172.96H73.7068V179.612H80.3591V172.96Z" fill="white"/>
<path d="M86.9665 172.967H80.3142V179.619H86.9665V172.967Z" fill="white"/>
<path d="M93.6629 172.967H87.0106V179.619H93.6629V172.967Z" fill="white"/>
<path d="M100.315 172.967H93.6625V179.619H100.315V172.967Z" fill="white"/>
<path d="M106.982 172.967H100.329V179.619H106.982V172.967Z" fill="white"/>
<path d="M113.619 172.967H106.967V179.619H113.619V172.967Z" fill="white"/>
<path d="M126.879 172.967H120.227V179.619H126.879V172.967Z" fill="white"/>
<path d="M133.56 172.967H126.908V179.619H133.56V172.967Z" fill="white"/>
<path d="M140.212 172.967H133.56V179.619H140.212V172.967Z" fill="white"/>
<path d="M146.864 172.967H140.212V179.619H146.864V172.967Z" fill="white"/>
<path d="M160.139 172.967H153.487V179.619H160.139V172.967Z" fill="white"/>
<path d="M166.851 172.967H160.198V179.619H166.851V172.967Z" fill="white"/>
<path d="M180.11 172.967H173.458V179.619H180.11V172.967Z" fill="white"/>
<path d="M193.429 172.967H186.777V179.619H193.429V172.967Z" fill="white"/>
<path d="M206.719 172.967H200.066V179.619H206.719V172.967Z" fill="white"/>
<path d="M60.3288 179.619H53.6765V186.272H60.3288V179.619Z" fill="white"/>
<path d="M73.7067 179.619H67.0544V186.272H73.7067V179.619Z" fill="white"/>
<path d="M93.6629 179.619H87.0106V186.272H93.6629V179.619Z" fill="white"/>
<path d="M126.879 179.619H120.227V186.272H126.879V179.619Z" fill="white"/>
<path d="M133.56 179.619H126.908V186.272H133.56V179.619Z" fill="white"/>
<path d="M140.212 179.619H133.56V186.272H140.212V179.619Z" fill="white"/>
<path d="M160.139 179.619H153.487V186.272H160.139V179.619Z" fill="white"/>
<path d="M166.851 179.619H160.198V186.272H166.851V179.619Z" fill="white"/>
<path d="M193.429 179.619H186.777V186.272H193.429V179.619Z" fill="white"/>
<path d="M200.051 179.619H193.399V186.272H200.051V179.619Z" fill="white"/>
<path d="M206.719 179.619H200.066V186.272H206.719V179.619Z" fill="white"/>
<path d="M213.4 179.619H206.748V186.272H213.4V179.619Z" fill="white"/>
<path d="M220.007 179.619H213.355V186.272H220.007V179.619Z" fill="white"/>
<path d="M60.3288 186.264H53.6765V192.916H60.3288V186.264Z" fill="white"/>
<path d="M67.0403 186.264H60.388V192.916H67.0403V186.264Z" fill="white"/>
<path d="M73.7067 186.264H67.0544V192.916H73.7067V186.264Z" fill="white"/>
<path d="M80.3591 186.264H73.7068V192.916H80.3591V186.264Z" fill="white"/>
<path d="M86.9665 186.264H80.3142V192.916H86.9665V186.264Z" fill="white"/>
<path d="M100.315 186.264H93.6625V192.916H100.315V186.264Z" fill="white"/>
<path d="M140.212 186.264H133.56V192.916H140.212V186.264Z" fill="white"/>
<path d="M153.532 186.264H146.879V192.916H153.532V186.264Z" fill="white"/>
<path d="M160.139 186.264H153.487V192.916H160.139V186.264Z" fill="white"/>
<path d="M166.851 186.264H160.198V192.916H166.851V186.264Z" fill="white"/>
<path d="M173.458 186.264H166.806V192.916H173.458V186.264Z" fill="white"/>
<path d="M180.11 186.264H173.458V192.916H180.11V186.264Z" fill="white"/>
<path d="M186.807 186.264H180.155V192.916H186.807V186.264Z" fill="white"/>
<path d="M193.429 186.264H186.777V192.916H193.429V186.264Z" fill="white"/>
<path d="M60.3288 192.916H53.6765V199.568H60.3288V192.916Z" fill="white"/>
<path d="M67.0403 192.916H60.388V199.568H67.0403V192.916Z" fill="white"/>
<path d="M80.3591 192.916H73.7068V199.568H80.3591V192.916Z" fill="white"/>
<path d="M93.6629 192.916H87.0106V199.568H93.6629V192.916Z" fill="white"/>
<path d="M106.982 192.916H100.329V199.568H106.982V192.916Z" fill="white"/>
<path d="M120.242 192.916H113.589V199.568H120.242V192.916Z" fill="white"/>
<path d="M133.56 192.916H126.908V199.568H133.56V192.916Z" fill="white"/>
<path d="M140.212 192.916H133.56V199.568H140.212V192.916Z" fill="white"/>
<path d="M146.864 192.916H140.212V199.568H146.864V192.916Z" fill="white"/>
<path d="M153.532 192.916H146.879V199.568H153.532V192.916Z" fill="white"/>
<path d="M160.139 192.916H153.487V199.568H160.139V192.916Z" fill="white"/>
<path d="M166.851 192.916H160.198V199.568H166.851V192.916Z" fill="white"/>
<path d="M173.458 192.916H166.806V199.568H173.458V192.916Z" fill="white"/>
<path d="M186.807 192.916H180.155V199.568H186.807V192.916Z" fill="white"/>
<path d="M213.4 192.916H206.748V199.568H213.4V192.916Z" fill="white"/>
<path d="M220.007 192.916H213.355V199.568H220.007V192.916Z" fill="white"/>
<path d="M73.7067 199.568H67.0544V206.22H73.7067V199.568Z" fill="white"/>
<path d="M106.982 199.568H100.329V206.22H106.982V199.568Z" fill="white"/>
<path d="M113.619 199.568H106.967V206.22H113.619V199.568Z" fill="white"/>
<path d="M126.879 199.568H120.227V206.22H126.879V199.568Z" fill="white"/>
<path d="M133.56 199.568H126.908V206.22H133.56V199.568Z" fill="white"/>
<path d="M140.212 199.568H133.56V206.22H140.212V199.568Z" fill="white"/>
<path d="M146.864 199.568H140.212V206.22H146.864V199.568Z" fill="white"/>
<path d="M153.532 199.568H146.879V206.22H153.532V199.568Z" fill="white"/>
<path d="M160.139 199.568H153.487V206.22H160.139V199.568Z" fill="white"/>
<path d="M166.851 199.568H160.198V206.22H166.851V199.568Z" fill="white"/>
<path d="M186.807 199.568H180.155V206.22H186.807V199.568Z" fill="white"/>
<path d="M193.429 199.568H186.777V206.22H193.429V199.568Z" fill="white"/>
<path d="M206.719 199.568H200.066V206.22H206.719V199.568Z" fill="white"/>
<path d="M213.4 199.568H206.748V206.22H213.4V199.568Z" fill="white"/>
<path d="M220.007 199.568H213.355V206.22H220.007V199.568Z" fill="white"/>
<path d="M93.6629 206.22H87.0106V212.872H93.6629V206.22Z" fill="white"/>
<path d="M113.619 206.22H106.967V212.872H113.619V206.22Z" fill="white"/>
<path d="M133.56 206.22H126.908V212.872H133.56V206.22Z" fill="white"/>
<path d="M153.532 206.22H146.879V212.872H153.532V206.22Z" fill="white"/>
<path d="M186.807 206.22H180.155V212.872H186.807V206.22Z" fill="white"/>
<path d="M193.429 206.22H186.777V212.872H193.429V206.22Z" fill="white"/>
<path d="M200.051 206.22H193.399V212.872H200.051V206.22Z" fill="white"/>
<path d="M206.719 206.22H200.066V212.872H206.719V206.22Z" fill="white"/>
<path d="M213.4 206.22H206.748V212.872H213.4V206.22Z" fill="white"/>
<path d="M220.007 206.22H213.355V212.872H220.007V206.22Z" fill="white"/>
<path d="M60.3288 212.872H53.6765V219.524H60.3288V212.872Z" fill="white"/>
<path d="M67.0403 212.872H60.388V219.524H67.0403V212.872Z" fill="white"/>
<path d="M80.3591 212.88H73.7068V219.532H80.3591V212.88Z" fill="white"/>
<path d="M106.982 212.872H100.329V219.524H106.982V212.872Z" fill="white"/>
<path d="M113.619 212.872H106.967V219.524H113.619V212.872Z" fill="white"/>
<path d="M120.242 212.872H113.589V219.524H120.242V212.872Z" fill="white"/>
<path d="M133.56 212.872H126.908V219.524H133.56V212.872Z" fill="white"/>
<path d="M160.139 212.872H153.487V219.524H160.139V212.872Z" fill="white"/>
<path d="M166.851 212.872H160.198V219.524H166.851V212.872Z" fill="white"/>
<path d="M180.11 212.872H173.458V219.524H180.11V212.872Z" fill="white"/>
<path d="M186.807 212.872H180.155V219.524H186.807V212.872Z" fill="white"/>
<path d="M193.429 212.872H186.777V219.524H193.429V212.872Z" fill="white"/>
<path d="M40.1004 -0.000976562H7.50413H0.519226V6.98393V39.5802V46.5651H7.50413H40.1004H47.0853V39.5802V6.98393V-0.000976562H40.1004ZM40.1004 39.5802H7.50413V6.98393H40.1004V39.5802Z" fill="white"/>
<path d="M213.083 -0.000976562H180.486H173.502V6.98393V39.5802V46.5651H180.486H213.083H220.068V39.5802V6.98393V-0.000976562H213.083ZM213.083 39.5802H180.486V6.98393H213.083V39.5802Z" fill="white"/>
<path d="M40.1004 172.968H7.50413H0.519226V179.952V212.549V219.534H7.50413H40.1004H47.0853V212.549V179.952V172.968H40.1004ZM40.1004 212.549H7.50413V179.952H40.1004V212.549Z" fill="white"/>
<path d="M33.7799 13.3105H13.823V33.2674H33.7799V13.3105Z" fill="white"/>
<path d="M206.734 13.3105H186.777V33.2674H206.734V13.3105Z" fill="white"/>
<path d="M33.7799 186.264H13.823V206.221H33.7799V186.264Z" fill="white"/>
</svg>
